<?xml version="1.0" encoding="UTF-8" standalone="no"?>
<!-- Created with Inkscape (http://www.inkscape.org/) -->

<svg
   xmlns:dc="http://purl.org/dc/elements/1.1/"
   xmlns:cc="http://creativecommons.org/ns#"
   xmlns:rdf="http://www.w3.org/1999/02/22-rdf-syntax-ns#"
   xmlns:svg="http://www.w3.org/2000/svg"
   xmlns="http://www.w3.org/2000/svg"
   xmlns:sodipodi="http://sodipodi.sourceforge.net/DTD/sodipodi-0.dtd"
   xmlns:inkscape="http://www.inkscape.org/namespaces/inkscape"
   width="147.7169mm"
   height="147.7169mm"
   viewBox="0 0 523.40635 523.40635"
   id="svg2"
   version="1.1"
   inkscape:version="0.91 r13725"
   sodipodi:docname="logo.svg"
   inkscape:export-filename="F:\xampp\htdocs\mesa\logo\logo16.png"
   inkscape:export-xdpi="2.75"
   inkscape:export-ydpi="2.75">
  <defs
     id="defs4">
    <mask
       maskUnits="userSpaceOnUse"
       id="mask4210">
      <path
         inkscape:connector-curvature="0"
         id="path4212"
         d="m 302.5,540.68764 c -10.86579,9.18085 -20.70101,19.53996 -29.30859,30.88477 -24.52879,32.32896 -39.09369,72.63284 -39.09375,116.34375 0.0872,42.27101 14.07324,83.34028 39.80273,116.8789 l 30.40039,-30.40039 c -17.9188,-25.28217 -27.57406,-55.49034 -27.64062,-86.47851 -7e-5,-31.94156 9.98537,-61.54746 26.99218,-85.88282 l 108.35547,108.35547 29.52735,0 108.35546,-108.35547 c 17.00682,24.33536 26.99226,53.94126 26.99219,85.88282 -0.0334,31.00365 -9.66594,61.2364 -27.57422,86.54492 l 30.4043,30.4043 c 25.71895,-33.56671 39.68079,-74.66227 39.73242,-116.94922 -6e-5,-43.71091 -14.56496,-84.01479 -39.09375,-116.34375 -8.60789,-11.34521 -18.4443,-21.70368 -29.31054,-30.88477 L 426.77148,664.95913 302.5,540.68764 Z"
         style="fill:#ffffff;fill-opacity:1;fill-rule:evenodd;stroke:none;stroke-width:1px;stroke-linecap:butt;stroke-linejoin:miter;stroke-opacity:1" />
    </mask>
    <mask
       maskUnits="userSpaceOnUse"
       id="mask4156">
      <path
         inkscape:connector-curvature="0"
         id="path4158"
         d="m 302.5,540.68764 c -10.86579,9.18085 -20.70101,19.53996 -29.30859,30.88477 -24.52879,32.32896 -39.09369,72.63284 -39.09375,116.34375 0.0872,42.27101 14.07324,83.34028 39.80273,116.8789 l 30.40039,-30.40039 c -17.9188,-25.28217 -27.57406,-55.49034 -27.64062,-86.47851 -7e-5,-31.94156 9.98537,-61.54746 26.99218,-85.88282 l 108.35547,108.35547 29.52735,0 108.35546,-108.35547 c 17.00682,24.33536 26.99226,53.94126 26.99219,85.88282 -0.0334,31.00365 -9.66594,61.2364 -27.57422,86.54492 l 30.4043,30.4043 c 25.71895,-33.56671 39.68079,-74.66227 39.73242,-116.94922 -6e-5,-43.71091 -14.56496,-84.01479 -39.09375,-116.34375 -8.60789,-11.34521 -18.4443,-21.70368 -29.31054,-30.88477 L 426.77148,664.95913 302.5,540.68764 Z"
         style="fill:#ffffff;fill-opacity:1;fill-rule:evenodd;stroke:none;stroke-width:1px;stroke-linecap:butt;stroke-linejoin:miter;stroke-opacity:1" />
    </mask>
  </defs>
  <sodipodi:namedview
     id="base"
     pagecolor="#000000"
     bordercolor="#666666"
     borderopacity="1.0"
     inkscape:pageopacity="0"
     inkscape:pageshadow="2"
     inkscape:zoom="1.3001466"
     inkscape:cx="89.547085"
     inkscape:cy="261.09018"
     inkscape:document-units="px"
     inkscape:current-layer="layer1"
     showgrid="false"
     showguides="true"
     inkscape:guide-bbox="true"
     fit-margin-top="0"
     fit-margin-left="0"
     fit-margin-right="0"
     fit-margin-bottom="0"
     inkscape:window-width="1920"
     inkscape:window-height="1178"
     inkscape:window-x="-8"
     inkscape:window-y="-8"
     inkscape:window-maximized="1">
    <sodipodi:guide
       position="150.35503,261.32316"
       orientation="0,1"
       id="guide4138" />
    <sodipodi:guide
       position="261.32316,212.6796"
       orientation="1,0"
       id="guide4140" />
  </sodipodi:namedview>
  <metadata
     id="metadata7">
    <rdf:RDF>
      <cc:Work
         rdf:about="">
        <dc:format>image/svg+xml</dc:format>
        <dc:type
           rdf:resource="http://purl.org/dc/dcmitype/StillImage" />
        <dc:title></dc:title>
      </cc:Work>
    </rdf:RDF>
  </metadata>
  <g
     inkscape:label="Capa 1"
     inkscape:groupmode="layer"
     id="layer1"
     transform="translate(-165.06805,-426.21234)">
    <circle
       style="fill:#ffffff;fill-rule:evenodd;stroke:none;stroke-width:1px;stroke-linecap:butt;stroke-linejoin:miter;stroke-opacity:1;fill-opacity:1"
       id="path3336"
       cx="426.77124"
       cy="687.91553"
       r="261.70319" />
    <path
       style="fill:#ffffff;fill-opacity:1;fill-rule:evenodd;stroke:none;stroke-width:1px;stroke-linecap:butt;stroke-linejoin:miter;stroke-opacity:1"
       d="m 302.5,232.41992 c -10.86579,9.18085 -20.70101,19.53996 -29.30859,30.88477 -24.52879,32.32896 -39.09369,72.63284 -39.09375,116.34375 0.0872,42.27101 14.07324,83.34028 39.80273,116.8789 l 30.40039,-30.40039 c -17.9188,-25.28217 -27.57406,-55.49034 -27.64062,-86.47851 -7e-5,-31.94156 9.98537,-61.54746 26.99218,-85.88282 l 108.35547,108.35547 29.52735,0 108.35546,-108.35547 c 17.00682,24.33536 26.99226,53.94126 26.99219,85.88282 -0.0334,31.00365 -9.66594,61.2364 -27.57422,86.54492 l 30.4043,30.4043 c 25.71895,-33.56671 39.68079,-74.66227 39.73242,-116.94922 -6e-5,-43.71091 -14.56496,-84.01479 -39.09375,-116.34375 -8.60789,-11.34521 -18.4443,-21.70368 -29.31054,-30.88477 L 426.77148,356.69141 302.5,232.41992 Z"
       id="circle4142"
       inkscape:connector-curvature="0"
       transform="translate(0,308.26772)" />
    <g
       id="g4148"
       mask="url(#mask4156)"
       inkscape:transform-center-x="59.993234"
       inkscape:transform-center-y="-12.306325">
      <rect
         style="fill:#00aad4;fill-opacity:1;stroke:none"
         id="rect4176"
         width="194.57425"
         height="345.82532"
         x="431.08752"
         y="502.70599" />
      <rect
         y="502.70599"
         x="356.3219"
         height="345.82532"
         width="194.57425"
         id="rect4174"
         style="fill:#88aa00;fill-opacity:1;stroke:none" />
      <rect
         style="fill:#ffd42a;fill-opacity:1;stroke:none"
         id="rect4172"
         width="194.57425"
         height="345.82532"
         x="232.15689"
         y="502.70599" />
      <rect
         y="502.70599"
         x="107.87216"
         height="345.82532"
         width="194.57425"
         id="rect4170"
         style="fill:#ff2a7f;fill-opacity:1;stroke:none" />
    </g>
  </g>
</svg>
